GREETZ: UnDeaD - BadGirl2k9 - virusofsaten - foxyb - WICCYWOLF - lizzymwah1

VISIT http://www.seedboxworld.biz/ for all ur seedbox needs!

RELEASE NAME: Kid Racer 2010 DvDRip XviD - SDTeam
RELEASED BY: UnDeaD & BadGirl2k9
SIZE: 327 MB

LANGUAGE: English
IMDb: http://www.imdb.com/title/tt1715823/ 

PLOT: Fourteen year old go racecar enthusiast Marc Benton (Randy Shelly) 
attempts to raise enough money to buy his own go cart and compete in a 
local go cart race. Though at first it looks like Marc's dream is a 
long shot, his goal comes into reach when he befriends kindly track 
manager Buddy (Priscilla Barnes) and lands a job repairing race-damaged 
go carts. Over time, with a little help from Buddy, Marc learns that 
being a true champion takes much more than fast reflexes alone.

COVER IMAGE: http://bayimg.com/caOkcAAco
SCREENS: 
http://i658.photobucket.com/albums/uu309/BadGirl2k9/screens/vlcsnap-2010-09-12-00h13m29s191.png 
http://i658.photobucket.com/albums/uu309/BadGirl2k9/screens/vlcsnap-2010-09-12-00h13m36s30.png 
http://i658.photobucket.com/albums/uu309/BadGirl2k9/screens/vlcsnap-2010-09-12-00h13m45s122.png

General
Format                           : AVI
Format/Info                      : Audio Video Interleave
File size                        : 328 MiB
Duration                         : 1h 20mn
Overall bit rate                 : 572 Kbps
Writing application              : MEncoder SVN-r22963
Writing library                  : MPlayer

Video
ID                               : 0
Format                           : MPEG-4 Visual
Format profile                   : Simple@L3
Format settings, BVOP            : No
Format settings, QPel            : No
Format settings, GMC             : No warppoints
Format settings, Matrix          : Default (H.263)
Codec ID                         : XVID
Codec ID/Hint                    : XviD
Duration                         : 1h 20mn
Bit rate                         : 496 Kbps
Width                            : 480 pixels
Height                           : 320 pixels
Display aspect ratio             : 3:2
Frame rate                       : 20.000 fps
Resolution                       : 8 bits
Colorimetry                      : 4:2:0
Scan type                        : Progressive
Bits/(Pixel*Frame)               : 0.161
Stream size                      : 284 MiB (87%)
Writing library                  : XviD 1.1.2 (UTC 2006-11-01)

Audio
ID                               : 1
Format                           : MPEG Audio
Format version                   : Version 1
Format profile                   : Layer 3
Codec ID                         : 55
Codec ID/Hint                    : MP3
Duration                         : 1h 20mn
Bit rate mode                    : Constant
Bit rate                         : 64.0 Kbps
Channel(s)                       : 2 channels
Sampling rate                    : 44.1 KHz
Stream size                      : 36.7 MiB (11%)
Alignment                        : Aligned on interleaves
Interleave, duration             : 26 ms (0.52 video frame)
Interleave, preload duration     : 522 ms
Writing library                  : LAMEUUULAME3.97


GROUP NOTE: Big thanks to seedboxworld.biz for the seedbox!
